name analog
datacolumns 19
datarows 40
range 0.1665 0.186
endheader
time	ground_force_vx	ground_force_vy	ground_force_vz	ground_force_px	ground_force_py	ground_force_pz	l_ground_force_vx	l_ground_force_vy	l_ground_force_vz	l_ground_force_px	l_ground_force_py	l_ground_force_pz	ground_torque_x	ground_torque_y	ground_torque_z	l_ground_torque_x	l_ground_torque_y	l_ground_torque_z
0.1665	-0.0	-0.0	-0.0	-0.0	-0.0	-0.0	-4.941441535949707	-14.359426498413086	-765.78857421875	-0.0	-0.0	-0.0	-0.0	-0.0	-0.0	259201.59375	-12485.9248046875	-3185.22509765625
0.167	-0.0	-0.0	-0.0	-0.0	-0.0	-0.0	-5.7026190757751465	-13.28502368927002	-765.8872680664062	-0.0	-0.0	-0.0	-0.0	-0.0	-0.0	259151.09375	-12113.0126953125	-3422.74169921875
0.1675	-0.0	-0.0	-0.0	-0.0	-0.0	-0.0	-5.7025465965271	-12.743268966674805	-767.0408325195312	-0.0	-0.0	-0.0	-0.0	-0.0	-0.0	259367.15625	-12087.5458984375	-3643.740478515625
0.168	-0.0	-0.0	-0.0	-0.0	-0.0	-0.0	-6.146052360534668	-11.98685073852539	-765.1880493164062	-0.0	-0.0	-0.0	-0.0	-0.0	-0.0	259447.515625	-12088.748046875	-3758.023681640625
0.1685	-0.0	-0.0	-0.0	-0.0	-0.0	-0.0	-6.148777008056641	-11.178210258483888	-764.9912109375	-0.0	-0.0	-0.0	-0.0	-0.0	-0.0	259336.671875	-11854.6708984375	-3846.8525390625
0.169	-0.0	-0.0	-0.0	-0.0	-0.0	-0.0	-6.653308868408203	-10.294848442077637	-763.2454833984375	-0.0	-0.0	-0.0	-0.0	-0.0	-0.0	259107.140625	-11759.5439453125	-3850.644287109375
0.1695	-0.0	-0.0	-0.0	-0.0	-0.0	-0.0	-6.781075477600098	-9.916747093200684	-762.2539672851562	-0.0	-0.0	-0.0	-0.0	-0.0	-0.0	258736.9375	-11185.234375	-3987.08056640625
0.17	-0.0	-0.0	-0.0	-0.0	-0.0	-0.0	-6.795605182647705	-9.69072723388672	-760.2412719726562	-0.0	-0.0	-0.0	-0.0	-0.0	-0.0	258472.71875	-11102.8037109375	-4020.2216796875
0.1705	-0.0	-0.0	-0.0	-0.0	-0.0	-0.0	-7.406874656677246	-9.087109565734863	-757.83544921875	-0.0	-0.0	-0.0	-0.0	-0.0	-0.0	257723.609375	-10655.6923828125	-4125.98681640625
0.171	-0.0	-0.0	-0.0	-0.0	-0.0	-0.0	-7.767131328582764	-8.395435333251953	-756.611572265625	-0.0	-0.0	-0.0	-0.0	-0.0	-0.0	257486.328125	-10608.12890625	-4376.51220703125
0.1715	-0.0	-0.0	-0.0	-0.0	-0.0	-0.0	-8.619935035705566	-7.836163997650146	-755.156005859375	-0.0	-0.0	-0.0	-0.0	-0.0	-0.0	257241.828125	-10015.712890625	-4737.9326171875
0.17200000000000001	-0.0	-0.0	-0.0	-0.0	-0.0	-0.0	-9.216527938842772	-6.849606990814209	-754.939697265625	-0.0	-0.0	-0.0	-0.0	-0.0	-0.0	257187.25	-9920.0615234375	-4919.26318359375
0.17250000000000001	-0.0	-0.0	-0.0	-0.0	-0.0	-0.0	-9.742873191833496	-6.005874633789063	-754.0109252929688	-0.0	-0.0	-0.0	-0.0	-0.0	-0.0	257062.75	-9749.076171875	-5072.82421875
0.17300000000000001	-0.0	-0.0	-0.0	-0.0	-0.0	-0.0	-10.443479537963867	-5.387622833251953	-754.900634765625	-0.0	-0.0	-0.0	-0.0	-0.0	-0.0	257461.609375	-9470.787109375	-5283.8017578125
0.17350000000000002	-0.0	-0.0	-0.0	-0.0	-0.0	-0.0	-10.669639587402344	-4.3676066398620605	-753.59912109375	-0.0	-0.0	-0.0	-0.0	-0.0	-0.0	257560.859375	-9176.8916015625	-5407.552734375
0.17400000000000002	-0.0	-0.0	-0.0	-0.0	-0.0	-0.0	-11.250414848327637	-3.564437866210937	-754.5166015625	-0.0	-0.0	-0.0	-0.0	-0.0	-0.0	258182.5625	-9013.62109375	-5545.47900390625
0.17450000000000002	-0.0	-0.0	-0.0	-0.0	-0.0	-0.0	-11.83881950378418	-2.617438793182373	-755.9765625	-0.0	-0.0	-0.0	-0.0	-0.0	-0.0	258551.453125	-8654.36328125	-5831.33251953125
0.17500000000000002	-0.0	-0.0	-0.0	-0.0	-0.0	-0.0	-12.064666748046877	-1.485324144363403	-755.0560302734375	-0.0	-0.0	-0.0	-0.0	-0.0	-0.0	258914.1875	-8503.1083984375	-6173.6552734375
0.17550000000000002	-0.0	-0.0	-0.0	-0.0	-0.0	-0.0	-12.427169799804688	-0.5779039859771729	-756.960693359375	-0.0	-0.0	-0.0	-0.0	-0.0	-0.0	258967.15625	-8422.1240234375	-6297.76123046875
0.176	-0.0	-0.0	-0.0	-0.0	-0.0	-0.0	-12.460155487060549	-0.3459004163742065	-756.138671875	-0.0	-0.0	-0.0	-0.0	-0.0	-0.0	259103.484375	-8271.388671875	-6349.017578125
0.1765	-0.0	-0.0	-0.0	-0.0	-0.0	-0.0	-12.402752876281738	0.2482820153236389	-755.6585083007812	-0.0	-0.0	-0.0	-0.0	-0.0	-0.0	259359.09375	-8061.01220703125	-6397.73291015625
0.177	-0.0	-0.0	-0.0	-0.0	-0.0	-0.0	-12.644756317138672	0.4823152720928192	-755.2423095703125	-0.0	-0.0	-0.0	-0.0	-0.0	-0.0	259434.90625	-8027.2685546875	-6473.31103515625
0.1775	-0.0	-0.0	-0.0	-0.0	-0.0	-0.0	-12.28981590270996	0.1255125254392624	-754.2614135742188	-0.0	-0.0	-0.0	-0.0	-0.0	-0.0	259334.5	-7786.3955078125	-6386.47705078125
0.178	-0.0	-0.0	-0.0	-0.0	-0.0	-0.0	-12.276686668395996	0.1938667595386505	-755.1212768554688	-0.0	-0.0	-0.0	-0.0	-0.0	-0.0	259247.53125	-7630.888671875	-6281.53857421875
0.1785	-0.0	-0.0	-0.0	-0.0	-0.0	-0.0	-12.023418426513672	0.124324083328247	-754.329833984375	-0.0	-0.0	-0.0	-0.0	-0.0	-0.0	259263.859375	-7512.083984375	-6227.9541015625
0.179	-0.0	-0.0	-0.0	-0.0	-0.0	-0.0	-11.928589820861816	-0.0647424608469009	-754.586181640625	-0.0	-0.0	-0.0	-0.0	-0.0	-0.0	259296.6875	-7518.35693359375	-6281.4375
0.1795	-0.0	-0.0	-0.0	-0.0	-0.0	-0.0	-11.92873477935791	-0.4651155173778534	-753.7254638671875	-0.0	-0.0	-0.0	-0.0	-0.0	-0.0	258966.21875	-7196.8994140625	-6283.50439453125
0.18	-0.0	-0.0	-0.0	-0.0	-0.0	-0.0	-11.887245178222656	-0.605822741985321	-752.2581176757812	-0.0	-0.0	-0.0	-0.0	-0.0	-0.0	258876.09375	-6873.3720703125	-6311.2900390625
0.1805	-0.0	-0.0	-0.0	-0.0	-0.0	-0.0	-12.04116439819336	-0.9300154447555542	-752.1442260742188	-0.0	-0.0	-0.0	-0.0	-0.0	-0.0	258633.84375	-6784.73046875	-6453.75537109375
0.181	-0.0	-0.0	-0.0	-0.0	-0.0	-0.0	-12.354228973388672	-1.273184061050415	-752.8630981445312	-0.0	-0.0	-0.0	-0.0	-0.0	-0.0	258663.171875	-6569.26513671875	-6563.1875
0.1815	-0.0	-0.0	-0.0	-0.0	-0.0	-0.0	-12.237272262573242	-1.2460943460464478	-751.1902465820312	-0.0	-0.0	-0.0	-0.0	-0.0	-0.0	258514.765625	-6263.4091796875	-6644.33544921875
0.182	-0.0	-0.0	-0.0	-0.0	-0.0	-0.0	-12.414934158325195	-1.7664337158203125	-751.300537109375	-0.0	-0.0	-0.0	-0.0	-0.0	-0.0	258328.25	-6227.1279296875	-6572.82958984375
0.1825	-0.0	-0.0	-0.0	-0.0	-0.0	-0.0	-12.438472747802734	-1.5477629899978638	-749.2962036132812	-0.0	-0.0	-0.0	-0.0	-0.0	-0.0	257609.15625	-5919.92626953125	-6644.77685546875
0.183	-0.0	-0.0	-0.0	-0.0	-0.0	-0.0	-12.176578521728516	-1.7392576932907104	-749.1880493164062	-0.0	-0.0	-0.0	-0.0	-0.0	-0.0	257647.984375	-5675.5625	-6617.79345703125
0.1835	-0.0	-0.0	-0.0	-0.0	-0.0	-0.0	-12.442638397216797	-1.524496078491211	-746.5621948242188	-0.0	-0.0	-0.0	-0.0	-0.0	-0.0	257011.5	-5647.888671875	-6705.5751953125
0.184	-0.0	-0.0	-0.0	-0.0	-0.0	-0.0	-12.438977241516112	-1.8159908056259155	-746.7587280273438	-0.0	-0.0	-0.0	-0.0	-0.0	-0.0	256462.46875	-5326.44140625	-6816.6005859375
0.1845	-0.0	-0.0	-0.0	-0.0	-0.0	-0.0	-12.75133228302002	-2.2963638305664062	-746.04638671875	-0.0	-0.0	-0.0	-0.0	-0.0	-0.0	256175.6875	-5212.45361328125	-6788.44873046875
0.185	-0.0	-0.0	-0.0	-0.0	-0.0	-0.0	-13.375463485717772	-3.182650327682495	-744.1445922851562	-0.0	-0.0	-0.0	-0.0	-0.0	-0.0	254956.65625	-4941.58642578125	-7012.0654296875
0.1855	-0.0	-0.0	-0.0	-0.0	-0.0	-0.0	-13.861783027648926	-3.8463094234466553	-743.0060424804688	-0.0	-0.0	-0.0	-0.0	-0.0	-0.0	254657.96875	-4606.67529296875	-7181.87548828125
0.186	-0.0	-0.0	-0.0	-0.0	-0.0	-0.0	-14.036494255065918	-4.524507999420166	-742.3067016601562	-0.0	-0.0	-0.0	-0.0	-0.0	-0.0	253938.875	-4397.025390625	-7285.5732421875
